<?xml version="1.0" encoding="utf-8"?>
<!-- Generator: Adobe Illustrator 18.1.0, SVG Export Plug-In . SVG Version: 6.00 Build 0)  -->
<!DOCTYPE svg PUBLIC "-//W3C//DTD SVG 1.1//EN" "http://www.w3.org/Graphics/SVG/1.1/DTD/svg11.dtd">
<svg version="1.1" id="Layer_1" xmlns="http://www.w3.org/2000/svg" xmlns:xlink="http://www.w3.org/1999/xlink" x="0px" y="0px"
	 viewBox="0 0 500.7 441.8" enable-background="new 0 0 500.7 441.8" xml:space="preserve">
<path fill="#279DDA" d="M117.1,430.7L2.9,231.9c-3.9-6.8-3.9-15.2,0-22L117.1,11.1C121.1,4.2,128.4,0,136.3,0l228.2,0
	c7.9,0,15.2,4.2,19.2,11.1l114.2,198.8c3.9,6.8,3.9,15.2,0,22L383.6,430.7c-3.9,6.9-11.2,11.1-19.2,11.1H136.3
	C128.4,441.8,121.1,437.6,117.1,430.7z"/>
<g>
	<path fill="#FFFFFF" d="M146.9,132.4c0,88.5,7.7,168.6,104.1,208.8V100.7C251,100.7,199.7,132.4,146.9,132.4z"/>
	<path fill="#F3F3F3" d="M251,100.7v240.5c86.9-39.5,102.8-100.7,102.8-209C302.7,132.1,251,100.7,251,100.7z"/>
</g>
</svg>
