<?xml version="1.0" encoding="utf-8"?>
<!-- Generator: Adobe Illustrator 18.1.0, SVG Export Plug-In . SVG Version: 6.00 Build 0)  -->
<!DOCTYPE svg PUBLIC "-//W3C//DTD SVG 1.1//EN" "http://www.w3.org/Graphics/SVG/1.1/DTD/svg11.dtd">
<svg version="1.1" id="Layer_1" xmlns="http://www.w3.org/2000/svg" xmlns:xlink="http://www.w3.org/1999/xlink" x="0px" y="0px"
	 viewBox="0 0 500 500" enable-background="new 0 0 500 500" xml:space="preserve">
<path fill="#279DDA" d="M116.9,459.5L2.9,261c-3.9-6.8-3.9-15.2,0-22l114-198.5c4-6.9,11.3-11.1,19.2-11.1H364
	c7.9,0,15.2,4.2,19.2,11.1l114,198.5c3.9,6.8,3.9,15.2,0,22L383.1,459.5c-3.9,6.9-11.2,11.1-19.2,11.1H136.1
	C128.2,470.6,120.9,466.4,116.9,459.5z"/>
<path fill="#FFFFFF" d="M331.1,284.7c-12.8,0.1-22.1-4.2-30.8-13.3c-19.9-20.8-40.7-40.8-61-61.3c-0.4-0.4-0.9-0.9-1.4-1.3
	c-4-4-8.1-8-12.1-11.9c-7.3-7.1-10.8-15-10.5-25.4c0.5-20.3-12.7-37.3-32.3-42.6c-8.1-2.2-16.2-2.6-24.9,1.1
	c8.5,8.5,16.5,16.5,24.6,24.3c3.2,3,3.6,6.1,2,10c-4,9.2-10.6,15.7-19.5,20.1c-4.3,2.1-7.8,1.8-11.4-2.1
	c-7.5-8.1-15.4-15.8-23.7-24.3c-9.8,27,11.1,57.5,38.8,57.3c12.8-0.1,22.1,4.2,30.8,13.3c19.9,20.8,40.7,40.8,61,61.3
	c0.4,0.4,0.9,0.9,1.4,1.3c4,4,8.1,8,12.1,11.9c7.3,7.1,10.8,15,10.5,25.4c-0.5,20.3,12.7,37.3,32.3,42.6c8.1,2.2,16.2,2.6,24.9-1.1
	c-8.5-8.5-16.5-16.5-24.6-24.3c-3.2-3-3.6-6.1-2-10c4-9.2,10.6-15.7,19.5-20.1c4.3-2.1,7.8-1.8,11.4,2.1
	c7.5,8.1,15.4,15.8,23.7,24.3C379.6,315.1,358.8,284.6,331.1,284.7z"/>
<path fill="#F3F3F3" d="M250,29.4"/>
</svg>
