<?xml version="1.0" encoding="utf-8"?>
<!-- Generator: Adobe Illustrator 18.1.0, SVG Export Plug-In . SVG Version: 6.00 Build 0)  -->
<!DOCTYPE svg PUBLIC "-//W3C//DTD SVG 1.1//EN" "http://www.w3.org/Graphics/SVG/1.1/DTD/svg11.dtd">
<svg version="1.1" id="Layer_1" xmlns="http://www.w3.org/2000/svg" xmlns:xlink="http://www.w3.org/1999/xlink" x="0px" y="0px"
	 viewBox="0 0 399 526" enable-background="new 0 0 399 526" xml:space="preserve">
<g>
	<path fill="#FFFFFF" d="M360,526H39c-21.5,0-39-17.5-39-39V39C0,17.5,17.5,0,39,0h202.7l98.1,98.1l59.2,60.7V487
		C399,508.5,381.5,526,360,526z M39,18c-11.6,0-21,9.4-21,21v448c0,11.6,9.4,21,21,21h321c11.6,0,21-9.4,21-21V166.2l-54-55.4
		L234.3,18H39z"/>
	<path fill="#FFFFFF" d="M390,171.5H263c-18.7,0-34-15.3-34-34V9h18v128.5c0,8.8,7.2,16,16,16h127V171.5z"/>
</g>
<g>
	<line fill="#FFFFFF" x1="59" y1="234" x2="340" y2="234"/>
	<rect x="59" y="225" fill="#FFFFFF" width="281" height="18"/>
</g>
<g>
	<line fill="#FFFFFF" x1="59" y1="282" x2="340" y2="282"/>
	<rect x="59" y="273" fill="#FFFFFF" width="281" height="18"/>
</g>
<g>
	<line fill="#FFFFFF" x1="59" y1="330" x2="340" y2="330"/>
	<rect x="59" y="321" fill="#FFFFFF" width="281" height="18"/>
</g>
<g>
	<line fill="#FFFFFF" x1="59" y1="378" x2="340" y2="378"/>
	<rect x="59" y="369" fill="#FFFFFF" width="281" height="18"/>
</g>
<g>
	<line fill="#FFFFFF" x1="60" y1="425" x2="216" y2="425"/>
	<rect x="60" y="416" fill="#FFFFFF" width="156" height="18"/>
</g>
</svg>
