<?xml version="1.0" encoding="utf-8"?>
<!-- Generator: Adobe Illustrator 18.1.0, SVG Export Plug-In . SVG Version: 6.00 Build 0)  -->
<!DOCTYPE svg PUBLIC "-//W3C//DTD SVG 1.1//EN" "http://www.w3.org/Graphics/SVG/1.1/DTD/svg11.dtd">
<svg version="1.1" id="Layer_1" xmlns="http://www.w3.org/2000/svg" xmlns:xlink="http://www.w3.org/1999/xlink" x="0px" y="0px"
	 viewBox="0 0 694.8 147.9" enable-background="new 0 0 694.8 147.9" xml:space="preserve">
<g>
	<path fill="#FFFFFF" d="M144.3,144.9L106.5,28.5L68.7,144.9H46.2L0,0h23.4l35.4,115.5L96.9,0h19.2l38.1,115.5L189.6,0H213
		l-46.2,144.9H144.3z"/>
	<path fill="#FFFFFF" d="M364.5,144.9L326.7,28.5l-37.8,116.4h-22.5L220.2,0h23.4L279,115.5L317.1,0h19.2l38.1,115.5L409.8,0h23.4
		L387,144.9H364.5z"/>
	<path fill="#FFFFFF" d="M584.7,144.9L546.9,28.5l-37.8,116.4h-22.5L440.4,0h23.4l35.4,115.5L537.3,0h19.2l38.1,115.5L630,0h23.4
		l-46.2,144.9H584.7z"/>
	<path fill="#FFFFFF" d="M661.8,131.4c0-9,7.5-16.5,16.5-16.5s16.5,7.5,16.5,16.5s-7.5,16.5-16.5,16.5S661.8,140.4,661.8,131.4z"/>
</g>
</svg>
