<?xml version="1.0" encoding="utf-8"?>
<!-- Generator: Adobe Illustrator 18.1.0, SVG Export Plug-In . SVG Version: 6.00 Build 0)  -->
<!DOCTYPE svg PUBLIC "-//W3C//DTD SVG 1.1//EN" "http://www.w3.org/Graphics/SVG/1.1/DTD/svg11.dtd">
<svg version="1.1" id="Layer_1" xmlns="http://www.w3.org/2000/svg" xmlns:xlink="http://www.w3.org/1999/xlink" x="0px" y="0px"
	 viewBox="0 0 226.6 200" enable-background="new 0 0 226.6 200" xml:space="preserve">
<path fill="#279DDA" d="M53,195L1.3,105c-1.8-3.1-1.8-6.9,0-10L53,5c1.8-3.1,5.1-5,8.7-5L165,0c3.6,0,6.9,1.9,8.7,5l51.7,90
	c1.8,3.1,1.8,6.9,0,10l-51.7,90c-1.8,3.1-5.1,5-8.7,5H61.7C58.1,200,54.8,198.1,53,195z"/>
<path fill="#176E8C" d="M20.1,152.7"/>
<g>
	<path opacity="0.4" fill="#279DDA" d="M96.6,193c5.8,0,64.1,0,69.4,0l32.4-54.7l-35.2-57L96.6,193z"/>
	<polygon opacity="0.4" fill="#279DDA" points="220.9,100.4 187,41.6 220.9,100.5 	"/>
	<polygon fill="#279DDA" points="117.3,7 163.2,81.3 186.9,41.6 187,41.6 167,7 	"/>
	<polygon opacity="0.3" fill="#279DDA" points="198.5,138.3 220.9,100.6 220.9,100.5 198.5,138.3 	"/>
	<polygon opacity="0.4" fill="#279DDA" points="163.2,81.3 198.5,138.3 220.9,100.5 187,41.6 186.9,41.6 	"/>
	<polygon opacity="0.3" fill="#279DDA" points="163.2,81.3 198.5,138.3 220.9,100.5 187,41.6 186.9,41.6 	"/>
</g>
<g>
	<g>
		<path fill="#FFFFFF" d="M140.3,68.1l-19.2-19.2H81c-3.3,0-6,2.7-6,6v90.1c0,3.3,2.7,6,6,6h64.6c3.3,0,6-2.7,6-6V79.8L140.3,68.1z"
			/>
		<path fill="#F3F3F3" d="M121.1,48.9v25.8c0,2.8,2.3,5,5,5h25.5"/>
	</g>
	<path fill="#279DDA" d="M138.9,97.6H86.8c-1,0-1.8-0.8-1.8-1.8l0,0c0-1,0.8-1.8,1.8-1.8h52.1c1,0,1.8,0.8,1.8,1.8l0,0
		C140.8,96.8,140,97.6,138.9,97.6z"/>
	<path fill="#279DDA" d="M139.4,107.6H87.3c-1,0-1.8-0.8-1.8-1.8l0,0c0-1,0.8-1.8,1.8-1.8h52.1c1,0,1.8,0.8,1.8,1.8l0,0
		C141.2,106.8,140.4,107.6,139.4,107.6z"/>
	<path fill="#279DDA" d="M138.9,117.8H86.8c-1,0-1.8-0.8-1.8-1.8l0,0c0-1,0.8-1.8,1.8-1.8h52.1c1,0,1.8,0.8,1.8,1.8l0,0
		C140.8,117,140,117.8,138.9,117.8z"/>
	<path fill="#279DDA" d="M119.2,127.9h-32c-1,0-1.8-0.8-1.8-1.8v0c0-1,0.8-1.8,1.8-1.8h32c1,0,1.8,0.8,1.8,1.8v0
		C121.1,127,120.2,127.9,119.2,127.9z"/>
</g>
</svg>
