<?xml version="1.0" encoding="utf-8"?>
<!-- Generator: Adobe Illustrator 18.1.0, SVG Export Plug-In . SVG Version: 6.00 Build 0)  -->
<!DOCTYPE svg PUBLIC "-//W3C//DTD SVG 1.1//EN" "http://www.w3.org/Graphics/SVG/1.1/DTD/svg11.dtd">
<svg version="1.1" id="Layer_1" xmlns="http://www.w3.org/2000/svg" xmlns:xlink="http://www.w3.org/1999/xlink" x="0px" y="0px"
	 viewBox="0 0 500 500" enable-background="new 0 0 500 500" xml:space="preserve">
<path fill="#CCCCCC" d="M395,496H105C49.3,496,4,450.7,4,395V105C4,49.3,49.3,4,105,4h290c55.7,0,101,45.3,101,101v290
	C496,450.7,450.7,496,395,496z M105,26c-43.6,0-79,35.4-79,79v290c0,43.6,35.4,79,79,79h290c43.6,0,79-35.4,79-79V105
	c0-43.6-35.4-79-79-79H105z"/>
</svg>
