<?xml version="1.0" encoding="utf-8"?>
<!-- Generator: Adobe Illustrator 18.1.0, SVG Export Plug-In . SVG Version: 6.00 Build 0)  -->
<!DOCTYPE svg PUBLIC "-//W3C//DTD SVG 1.1//EN" "http://www.w3.org/Graphics/SVG/1.1/DTD/svg11.dtd">
<svg version="1.1" id="Layer_1" xmlns="http://www.w3.org/2000/svg" xmlns:xlink="http://www.w3.org/1999/xlink" x="0px" y="0px"
	 viewBox="0 0 54.9 70.6" enable-background="new 0 0 54.9 70.6" xml:space="preserve">
<path fill="none" stroke="#CCCCCC" stroke-width="2.2" stroke-miterlimit="10" d="M53.2,65.3c0.7-0.4,0.9-1.3,0.5-2
	c-2.4-3.9-5.2-8.4-7.4-12.2c-0.1-0.1-0.1-0.2-0.2-0.3c-0.4-0.7-0.2-1.6,0.5-2c2.1-1.3,4.1-2.5,5.9-3.7c0.9-0.5,0.9-1.8,0.1-2.4
	L22.8,20.9c-1.1-0.8-2.5,0.1-2.3,1.4l5.6,36.6c0.2,1,1.3,1.6,2.2,1c2.3-1.4,4.5-2.7,6.7-4.1c0.7-0.4,1.6-0.2,2,0.5
	c2.6,4.2,5.1,8.4,7.7,12.6c0.4,0.7,1.3,0.9,2,0.5C48.5,68.3,51.5,66.4,53.2,65.3z M35.8,21.6c1.6-0.2,3.1-0.5,4.6-0.7
	c1.1-0.2,1.9-0.8,1.8-2c0-1-1.1-1.7-2.4-1.5c-3.1,0.4-6.2,0.9-9.3,1.4c-1.1,0.2-1.9,0.8-1.7,2s1.1,1.6,2.3,1.4
	C32.7,22.1,34.2,21.9,35.8,21.6z M21.2,7.4c-0.2-1.6-0.5-3.2-0.7-4.8c-0.2-1-0.7-1.7-1.8-1.6c-1.2,0.1-1.7,0.9-1.6,2
	c0.4,3.3,0.9,6.6,1.5,9.9c0.2,1.1,0.9,1.8,2,1.5c1.1-0.2,1.5-1.1,1.3-2.2C21.6,10.6,21.4,9,21.2,7.4z M7.6,21.4
	c-1.6,0.3-3.3,0.5-4.9,0.8c-1.1,0.2-1.8,0.8-1.6,1.9c0.2,1.2,1,1.6,2.1,1.5c3.2-0.4,6.5-0.9,9.7-1.5c1-0.2,1.8-0.9,1.6-2
	c-0.2-1.1-1-1.5-2.1-1.4C10.6,20.9,9.1,21.1,7.6,21.4z M11.7,12.2c-1.3-1-2.7-2-4-2.9C6.8,8.6,5.9,8.5,5.1,9.5S4.7,11.4,5.6,12
	c2.6,2,5.3,3.9,8,5.8c0.9,0.6,1.8,0.6,2.5-0.4c0.7-1,0.3-1.8-0.6-2.5C14.2,14,12.9,13.1,11.7,12.2z M31.5,11.6c1-1.3,2-2.7,2.9-4
	c0.6-0.9,0.7-1.8-0.2-2.5s-1.9-0.4-2.5,0.4c-2,2.6-3.9,5.3-5.8,8c-0.6,0.9-0.6,1.8,0.4,2.5c1,0.7,1.8,0.3,2.5-0.6
	C29.7,14.1,30.6,12.8,31.5,11.6z M11.8,31.3c-1,1.3-2,2.7-2.9,4c-0.6,0.9-0.7,1.8,0.2,2.5c0.9,0.7,1.9,0.4,2.5-0.4
	c2-2.6,3.9-5.3,5.8-7.9c0.6-0.9,0.6-1.8-0.3-2.5c-1-0.7-1.8-0.4-2.5,0.5C13.7,28.8,12.8,30.1,11.8,31.3z"/>
</svg>
