<?xml version="1.0" encoding="utf-8"?>
<!-- Generator: Adobe Illustrator 18.1.0, SVG Export Plug-In . SVG Version: 6.00 Build 0)  -->
<!DOCTYPE svg PUBLIC "-//W3C//DTD SVG 1.1//EN" "http://www.w3.org/Graphics/SVG/1.1/DTD/svg11.dtd">
<svg version="1.1" id="Layer_1" xmlns="http://www.w3.org/2000/svg" xmlns:xlink="http://www.w3.org/1999/xlink" x="0px" y="0px"
	 viewBox="0 0 491.9 512" enable-background="new 0 0 491.9 512" xml:space="preserve">
<path fill="#FFFFFF" d="M277.5,279.4c6.3-20.8,12.4-40.9,18.4-61.1c1-3.2,2.2-4.7,5.9-4.4c5.3,0.4,10.6,0.1,16.2,0.1
	c-10,29.1-20,57.8-29.8,86.6c-0.7,2.1-1.5,2.6-3.3,2.4c-0.2,0-0.3,0-0.5,0c-5.8-0.3-12.9,2.2-16.9-1c-3.6-2.8-3.8-9.9-5.5-15.1
	c-5-15.4-10-30.8-15-46.2c-0.4-1.2-0.9-2.4-1.5-3.9c-7,21.2-14,42.1-20.8,62.9c-0.8,2.6-2,3.6-4.8,3.2c-2.5-0.3-5-0.1-7.5-0.1
	c-9.5,0-9.8,0.1-12.3-8.7c-7.3-25.1-16.5-49.6-24.3-74.6c-0.6-1.9-0.4-3.9-1.6-5.8c4.7,0,9.3,0.6,13.7-0.2c6.1-1.1,7.8,2.2,9.1,6.9
	c5.3,18.7,10.7,37.3,16,56c0.3,0.9,0.7,1.5,1.6,2c6.8-20.5,13.7-40.9,20.2-61.5c0.8-2.7,1.8-3.4,4.3-3.4c4.7,0.1,9.3,0.1,14,0
	c2.2,0,3.3,0.5,4,3.1c6.2,20.2,12.7,40.4,19.1,60.6C276.4,278.1,276.8,278.4,277.5,279.4z"/>
<path fill="#FFFFFF" d="M420.3,236.7c-3.6,10.7-6.9,20.8-10.3,30.9c-3.6,10.8-7.5,21.5-10.8,32.4c-0.8,2.6-1.8,3.1-4.1,3.1
	c-2-0.1-4,0-6,0c-11.4,0-11.5,0-15-10.6c-8.1-24.8-16-49.8-24.3-74.5c-1.4-4.2,0.1-4,3-3.9c4,0.1,8,0.3,12-0.1
	c3.4-0.3,4.9,0.8,5.9,4.2c5.7,20.2,11.7,40.4,17.7,61.1c2.6-3.8,3.3-7.9,4.6-11.7c5.5-16.6,10.8-33.3,16.1-49.9
	c0.9-2.7,2.1-4.2,5.5-3.8c3.8,0.5,7.7,0.3,11.5,0.1c3.6-0.2,5.2,0.7,6.4,4.6c6.1,20.1,12.7,40,19.1,60.2c2.5-1.8,2.6-5,3.3-7.5
	c5-17.9,10.8-35.6,16.1-53.4c0.8-2.9,1.9-4,4.9-3.9c4.5,0.2,9,0.1,13.5,0c2.5-0.1,3.1,0.5,2.2,3.2c-9.6,27.7-19.1,55.5-28.4,83.3
	c-0.8,2.4-2,2.6-4,2.6c-4.7,0-9.3-0.2-14,0.1c-2.6,0.2-3.5-1.1-4.1-3.1C434.2,279.1,427.3,258.3,420.3,236.7z"/>
<path fill="#FFFFFF" d="M39.5,280c6.9-21,13.8-41.5,20.3-62.1c1-3.2,2.3-4.1,5.4-4c4.3,0.2,8.7,0.2,13,0c2.5-0.1,3.6,0.5,4.4,3.1
	c6.4,20,12.9,40,19.4,59.9c0.3,0.9-0.4,1.9,0.8,2.9c6.3-20.7,12.5-41.2,18.7-61.8c0.9-3,2.1-4.3,5.4-4.1c4.5,0.3,9,0.2,13.5,0
	c2.6-0.1,3.1,0.6,2.1,3.2c-6.9,19.7-13.7,39.4-20.4,59.1c-2.8,8-5.3,16.1-8.1,24.2c-0.6,1.7-1.6,3.3-3.9,2.7c-0.8-0.2-1.7,0-2.5,0
	c-4.9-0.4-11,2.1-14.4-1.1c-3.1-2.9-3.6-8.7-5.1-13.2c-5.5-16.9-11-33.8-17-52.2c-3,9-5.5,16.6-8.1,24.2c-4.3,13.1-8.7,26.2-13,39.3
	c-0.6,1.9-1.4,3.3-4.1,3.2c-5-0.3-10-0.2-15,0c-2,0.1-2.6-0.6-3.2-2.5c-9-27.9-18.2-55.8-27.4-83.6c-0.7-2.2-0.2-3,2.1-2.9
	c5,0.1,10,0.2,15,0c2.6-0.1,3,1.6,3.5,3.2c5.7,19.5,11.4,39.1,17.1,58.7C38.3,277,38.9,278.2,39.5,280z"/>
<path fill="#FFFFFF" d="M489.8,175.7c-5.2-14.1-10.7-28.1-18-41.4C461.8,116,450,99,436,83.7c-8.8-9.6-18.3-18.6-28.4-26.9
	c-14-11.4-28.9-21.3-44.9-29.4C348.5,20.4,333.9,14,318.5,10c-13-3.4-25.9-6.6-39.3-8.2c-3.3-0.4-7.1,0.4-10.2-1.8
	c-15.3,0-30.7,0-46,0c-0.3,0.3-0.6,0.9-0.9,0.9c-15.1,1-29.8,4.2-44.4,8c-25.1,6.6-48.3,17.2-70.1,31.1
	C86.9,53.2,68.7,69.3,52.5,87.8c-14.6,16.7-26.6,35-36.6,54.6C10.1,153.9,5.6,165.9,1.6,178c-0.9,2.8-2,6-0.9,9.3
	c1.7,5.1,5.4,7.7,10.6,7.6c5.6-0.1,8.8-4,10.4-8.7c3-8.8,6.3-17.4,10-26c6.7-15.6,15.7-29.9,25.3-43.8c1.9-2.7,4-3.7,7.1-1.5
	c2.1,1.5,4.3,3,6.6,3.9c17.6,7.3,35.1,15,53.8,19.3c1.5,0.4,2,1.4,1.6,3.3c-2.7,12.6-5.1,25.3-7.9,37.9c-2,9,3.6,16.6,11.9,15.6
	c5.1-0.6,9.1-5.9,9.9-13.1c1.4-12.1,4.6-23.8,7-35.6c0.4-1.9,1.1-2.1,3.4-1.7c18.1,3.3,36.2,6.6,54.6,7.6c5.6,0.3,11.3,0.1,16.7,1
	c4.3,0.7,9.8-1,12.3,1.4c2.7,2.6,0.7,8.2,0.8,12.5c0.2,5.8,0.2,11.6,0.3,17.4c6.1,1.1,12.2,0.1,18.3,0.6c3,0.2,3.5-1,3.5-3.7
	c-0.2-8,0-16-0.1-24c0-1.8-0.3-3.3,2.6-3.5c12.9-0.9,25.9-1.5,38.8-2.7c14.4-1.4,28.6-4,42.9-6.5c2.8-0.5,3.3-0.2,3.8,2.3
	c2.6,11.8,5.6,23.6,7.1,35.6c0.4,3.3,1,7,4,9.4c4.4,3.6,8.4,3.9,13.4,1.1c3.7-2.1,5.6-7.2,4.5-12.8c-2.6-12.5-4.3-25.1-7.9-37.4
	c-0.7-2.3-0.7-4.2,2.9-5.1c18.9-4.7,36.8-12.1,54.5-19.9c3-1.3,5.2-5.8,8.9-3.7c3.2,1.8,5,5.5,7,8.7c0.6,1,1.2,1.9,1.8,2.8
	c9.3,13.8,16.9,28.4,23.1,43.8c2.1,5.4,3.8,10.9,5.7,16.3c3.1,9,12.3,12,18.6,6C493.8,186.9,491.7,181,489.8,175.7z M137,106.6
	c-1.1,3-2.9,5.7-3.1,9.1c-0.1,2-1.6,2.6-3.6,2c-17.8-5.4-35.3-11.4-52.1-19.6c-4.5-2.2-3.1-4-0.8-6.1c13.3-12.2,26.7-24.5,42.1-34.1
	c18.4-11.5,37.9-20.8,58.8-27c0.4-0.1,1,0.1,2.5,0.4c-8.1,8.1-14.2,16.7-19.9,25.5C151,72.6,143.2,89.3,137,106.6z M231,132.1
	c-15.9-0.2-31.7-1.7-47.5-3.9c-8.5-1.2-16.9-2.8-25.4-3.9c-4.8-0.6-3.6-2.5-2.6-5.2c7.9-22.6,18-44,32.6-63.1
	c11.2-14.7,24.6-26.7,42.8-32.5c3.6-1.1,4.2-0.3,4.2,3.1c-0.1,17,0,34,0,50.9c0,16.8-0.1,33.6,0.1,50.4
	C235.1,131.3,234.2,132.1,231,132.1z M333.3,124.2c-14.1,2.4-28.1,4.7-42.4,5.9c-10.2,0.9-20.3,1.9-30.5,1.9c-2.8,0-3.6-0.8-3.6-3.6
	C257,111.3,257,94.2,257,77c0-16.6,0.1-33.3,0-49.9c0-3.8,0.3-4.8,4.6-3.3c15.1,5.1,26.8,14.3,37.1,26.3
	c17.5,20.2,28.6,43.7,37.6,68.6C337.5,122,338.4,123.4,333.3,124.2z M414.4,98c-11.4,5-22.9,10-34.7,14.1c-5.9,2.1-12,3.4-17.9,5.5
	c-2.3,0.8-3.2,0-3.9-2.2c-9-27.2-20.9-52.8-39-75.3c-2.3-2.8-5.5-5.1-7.2-8.8c3.7-0.8,6.8,1,9.5,1.9c18.7,6.6,36.6,15,53,25.9
	c12.8,8.5,25,17.8,35.6,29.1c1.6,1.8,3.9,3,5.6,4.7C417.1,94.9,417.3,96.7,414.4,98z"/>
<path fill="#FFFFFF" d="M491.2,324.7c-1.7-5.1-5.4-7.7-10.6-7.6c-5.6,0.1-8.9,4-10.4,8.7c-3,8.8-6.3,17.4-10,26
	c-6.7,15.6-15.7,29.9-25.3,43.8c-1.9,2.7-4,3.7-7.1,1.5c-2.1-1.5-4.3-3-6.6-3.9c-17.6-7.3-35.1-15-53.8-19.3c-1.5-0.4-2-1.4-1.6-3.3
	c2.7-12.6,5.1-25.3,7.9-37.9c2-9-3.6-16.6-11.9-15.6c-5.1,0.6-9.1,5.9-9.9,13.1c-1.4,12.1-4.6,23.8-7,35.6c-0.4,1.9-1.1,2.1-3.4,1.7
	c-18.1-3.3-36.2-6.6-54.6-7.6c-5.6-0.3-11.3-0.1-16.7-1c-4.3-0.7-9.8,1-12.3-1.4c-2.7-2.6-0.7-8.2-0.8-12.5
	c-0.2-5.8-0.2-11.6-0.3-17.4c-6.1-1.1-12.2-0.1-18.3-0.6c-3-0.2-3.5,1-3.5,3.7c0.2,8,0,16,0.1,24c0,1.8,0.3,3.3-2.6,3.5
	c-12.9,0.9-25.9,1.5-38.8,2.7c-14.4,1.4-28.6,4-42.9,6.5c-2.8,0.5-3.3,0.2-3.8-2.3c-2.6-11.8-5.6-23.6-7.1-35.6c-0.4-3.3-1-7-4-9.4
	c-4.4-3.6-8.4-3.9-13.4-1.1c-3.7,2.1-5.6,7.2-4.5,12.8c2.6,12.5,4.3,25.1,7.9,37.4c0.7,2.3,0.7,4.2-2.9,5.1
	c-18.9,4.7-36.8,12.1-54.5,19.9c-3,1.3-5.2,5.8-8.9,3.7c-3.2-1.8-5-5.5-7-8.7c-0.6-1-1.2-1.9-1.8-2.8c-9.3-13.8-16.9-28.4-23.1-43.8
	c-2.1-5.4-3.8-10.9-5.7-16.3c-3.1-9-12.3-12-18.6-6c-5.2,5-3.2,10.9-1.2,16.2c5.2,14.1,10.7,28.1,18,41.4
	C30.1,396,41.9,413,56,428.3c8.8,9.6,18.3,18.6,28.4,26.9c14,11.4,28.9,21.3,44.9,29.4c14.1,7.1,28.7,13.5,44.2,17.5
	c13,3.4,25.9,6.6,39.3,8.2c3.3,0.4,7.1-0.4,10.2,1.8c15.3,0,30.7,0,46,0c0.3-0.3,0.6-0.9,0.9-0.9c15.1-1,29.8-4.2,44.4-8
	c25.1-6.6,48.3-17.2,70.1-31.1c20.7-13.2,38.9-29.3,55.1-47.8c14.6-16.7,26.6-35,36.6-54.6c5.8-11.4,10.3-23.4,14.3-35.6
	C491.3,331.2,492.3,328,491.2,324.7z M179.8,480.4c-0.7,1.2-1.8,0.4-3,0c-20.9-6.2-40.4-15.6-58.6-27.5
	c-12.7-8.3-24.8-17.5-35.3-28.5c-2.1-2.2-4.7-4-6.8-6.3c-1.3-1.4-1.3-2.7,1-3.9c17.2-8.3,35.1-14.8,53.4-20.2c0.3-0.1,0.6-0.1,1-0.2
	c1.5,0.1,2.1,1,2.5,2.5c3.7,13,9,25.3,15.1,37.3c8,15.9,17,31.2,29.4,44.2C179.1,478.7,180.4,479.3,179.8,480.4z M235,434.5
	c0,16.8-0.1,33.6,0.1,50.4c0,4-0.6,4.6-4.7,3.2c-15.1-5.1-26.8-14.3-37.2-26.3c-11.6-13.3-20.2-28.4-27.7-44.1
	c-4-8.4-7-17.2-10.4-25.8c-0.9-2.4-0.7-3.5,2.7-4.2c11.7-2.4,23.7-3.4,35.5-5.7c3.8-0.7,7.8-0.7,11.7-0.9c8.9-0.5,17.8-1.7,26.7-1.3
	c2.9,0.1,3.5,1,3.5,3.7C234.9,400.6,235,417.6,235,434.5z M261.2,488.5c-3.5,1.1-4.3,0.4-4.3-3c0.1-17,0.1-34,0.1-50.9
	c0-16.8,0.1-33.6-0.1-50.4c0-3.2,0.7-4.1,4.1-4.1c15.9,0.1,31.7,1.7,47.5,3.9c8.5,1.2,16.9,2.8,25.4,3.9c4.7,0.6,3.6,2.5,2.7,5.2
	c-7.9,22.5-18,44-32.6,63.1C292.7,470.6,279.3,482.7,261.2,488.5z M414.6,419.8c-13.2,11.9-26.2,24-41.3,33.5
	c-18.3,11.5-37.5,20.9-58.2,27.2c-1,0.3-2.1,0.8-2.7,0.1c-1.1-1.3,0.5-2,1.2-2.7c10.3-11.3,18.5-24,25.7-37.5
	c7.6-14.2,13.9-28.8,18.7-44.1c0.6-2,1.6-2.7,3.6-2.1c18.3,5.5,36.3,11.6,53.3,20.3c0.7,0.4,2.2,0.1,2,1.9
	C416.2,417.5,415.6,418.9,414.6,419.8z"/>
</svg>
